<?xml version="1.0" encoding="utf-8"?>
<!-- Generator: Adobe Illustrator 25.2.1, SVG Export Plug-In . SVG Version: 6.00 Build 0)  -->
<svg version="1.1" id="Camada_1" xmlns="http://www.w3.org/2000/svg" xmlns:xlink="http://www.w3.org/1999/xlink" x="0px" y="0px"
	 viewBox="0 0 513 513" style="enable-background:new 0 0 513 513;" xml:space="preserve">
<style type="text/css">
	.st0{fill:#2F93B3;stroke:#000000;stroke-miterlimit:10;}
</style>
<circle class="st0" cx="257" cy="257" r="256.5"/>
<path d="M132.1,115.6c0-12.5-10.1-22.6-22.6-22.6S87,103.1,87,115.6v237c0,31.2,25.3,56.4,56.4,56.4h282.1
	c12.5,0,22.6-10.1,22.6-22.6c0-12.5-10.1-22.6-22.6-22.6H143.4c-6.2,0-11.3-5.1-11.3-11.3V115.6z M418.9,176.7
	c8.8-8.8,8.8-23.1,0-32c-8.8-8.8-23.1-8.8-32,0L312.7,219l-40.5-40.5c-8.8-8.8-23.1-8.8-32,0l-79,79c-8.8,8.8-8.8,23.1,0,32
	s23.1,8.8,32,0l63.1-63l40.5,40.5c8.8,8.8,23.1,8.8,32,0L418.9,176.7L418.9,176.7z"/>
</svg>
