<?xml version="1.0" encoding="utf-8"?>
<!-- Generator: Adobe Illustrator 25.2.1, SVG Export Plug-In . SVG Version: 6.00 Build 0)  -->
<svg version="1.1" id="Camada_1" xmlns="http://www.w3.org/2000/svg" xmlns:xlink="http://www.w3.org/1999/xlink" x="0px" y="0px"
	 viewBox="0 0 16 16" style="enable-background:new 0 0 16 16;" xml:space="preserve">
<path d="M14.86,0H1.14C0.51,0,0,0.52,0,1.15v13.69C0,15.48,0.51,16,1.14,16h13.72c0.63,0,1.14-0.52,1.14-1.15V1.15
	C16,0.52,15.49,0,14.86,0z M4.84,13.71H2.46V6.08h2.38L4.84,13.71L4.84,13.71z M3.65,5.04c-0.76,0-1.38-0.62-1.38-1.37
	s0.61-1.38,1.38-1.38c0.76,0,1.38,0.62,1.38,1.38C5.03,4.42,4.41,5.04,3.65,5.04z M13.72,13.71h-2.37V10c0-0.89-0.02-2.03-1.23-2.03
	c-1.24,0-1.43,0.96-1.43,1.96v3.78H6.33V6.08H8.6v1.04h0.03c0.32-0.6,1.09-1.23,2.25-1.23c2.4,0,2.85,1.58,2.85,3.64V13.71z"/>
</svg>
