<?xml version="1.0" encoding="utf-8"?>
<!-- Generator: Adobe Illustrator 25.2.1, SVG Export Plug-In . SVG Version: 6.00 Build 0)  -->
<svg version="1.1" id="Camada_1" xmlns="http://www.w3.org/2000/svg" xmlns:xlink="http://www.w3.org/1999/xlink" x="0px" y="0px"
	 viewBox="0 0 512 512" style="enable-background:new 0 0 512 512;" xml:space="preserve">
<style type="text/css">
	.st0{fill:#2F93B3;}
</style>
<circle class="st0" cx="256" cy="256" r="256"/>
<path d="M406,256c0-82.8-67.2-150-150-150s-150,67.2-150,150s67.2,150,150,150S406,338.8,406,256z M56,256c0-110.5,89.5-200,200-200
	s200,89.5,200,200s-89.5,200-200,200S56,366.5,56,256z M256,318.5c34.5,0,62.5-28,62.5-62.5s-28-62.5-62.5-62.5s-62.5,28-62.5,62.5
	S221.5,318.5,256,318.5z M256,143.5c62.1,0,112.5,50.4,112.5,112.5S318.1,368.5,256,368.5S143.5,318.1,143.5,256
	S193.9,143.5,256,143.5z M231,256c0-13.8,11.2-25,25-25c13.8,0,25,11.2,25,25c0,13.8-11.2,25-25,25C242.2,281,231,269.8,231,256z"/>
</svg>
